<?xml version="1.0" encoding="utf-8"?>
<!-- Generator: Adobe Illustrator 16.0.0, SVG Export Plug-In . SVG Version: 6.00 Build 0)  -->
<!DOCTYPE svg PUBLIC "-//W3C//DTD SVG 1.1 Tiny//EN" "http://www.w3.org/Graphics/SVG/1.1/DTD/svg11-tiny.dtd">
<svg version="1.1" baseProfile="tiny" id="Layer_1" xmlns="http://www.w3.org/2000/svg" xmlns:xlink="http://www.w3.org/1999/xlink"
	 x="0px" y="0px" width="157px" height="60px" viewBox="0 0 157 60" xml:space="preserve">
<g>
	<g>
		<path fill="#ED1C24" d="M44.482,11.539c0,0-9.333-1.527-15.273-1.527c-5.09,0-8.06,3.055-8.06,7.552
			c0,3.139,0.933,4.158,7.891,7.297c9.502,4.242,11.539,7.381,11.539,14.932c0,13.065-8.74,19.938-21.806,19.938
			c-8.994,0-17.647-3.477-17.647-3.477l1.951-8.4c0,0,9.588,1.697,15.527,1.697c6.363,0,10.097-2.036,10.097-8.401
			c0-3.224-1.103-4.241-8.569-7.636c-7.636-3.479-10.86-6.957-10.86-14.594C9.271,8.23,16.737,0,28.87,0
			c9.249,0,17.733,3.224,17.733,3.224L44.482,11.539z"/>
		<path fill="#ED1C24" d="M86.486,11.539c0,0-9.333-1.527-15.273-1.527c-5.091,0-8.06,3.055-8.06,7.552
			c0,3.139,0.933,4.158,7.891,7.297c9.502,4.242,11.539,7.381,11.539,14.932c0,13.065-8.739,19.938-21.806,19.938
			c-8.994,0-17.648-3.477-17.648-3.477l1.952-8.4c0,0,9.588,1.697,15.527,1.697c6.363,0,10.097-2.036,10.097-8.401
			c0-3.224-1.103-4.241-8.569-7.636c-7.637-3.479-10.86-6.957-10.86-14.594C51.274,8.23,58.741,0,70.874,0
			c9.248,0,17.733,3.224,17.733,3.224L86.486,11.539z"/>
		<path fill="#ED1C24" d="M99.727,1.018h18.157l0.085,41.999l19.175-41.999h18.497l-13.321,57.696h-11.708l11.03-47.514h-0.509
			l-20.618,44.968h-11.03L109.399,11.2h-0.424l-10.86,47.514H86.406L99.727,1.018z"/>
	</g>
	<g>
		<path fill="#FFFFFF" d="M43.039,11.539c0,0-9.333-1.527-15.272-1.527c-5.091,0-8.06,3.055-8.06,7.552
			c0,3.139,0.933,4.158,7.891,7.297c9.502,4.242,11.539,7.381,11.539,14.932c0,13.065-8.739,19.938-21.806,19.938
			c-8.993,0-17.647-3.477-17.647-3.477l1.952-8.4c0,0,9.587,1.697,15.526,1.697c6.363,0,10.097-2.036,10.097-8.401
			c0-3.224-1.103-4.241-8.569-7.636c-7.636-3.479-10.86-6.957-10.86-14.594C7.827,8.23,15.293,0,27.426,0
			C36.675,0,45.16,3.224,45.16,3.224L43.039,11.539z"/>
		<path fill="#FFFFFF" d="M85.042,11.539c0,0-9.333-1.527-15.273-1.527c-5.091,0-8.06,3.055-8.06,7.552
			c0,3.139,0.933,4.158,7.89,7.297c9.502,4.242,11.54,7.381,11.54,14.932c0,13.065-8.74,19.938-21.806,19.938
			c-8.994,0-17.648-3.477-17.648-3.477l1.952-8.4c0,0,9.588,1.697,15.527,1.697c6.363,0,10.097-2.036,10.097-8.401
			c0-3.224-1.103-4.241-8.569-7.636c-7.636-3.479-10.86-6.957-10.86-14.594C49.831,8.23,57.297,0,69.43,0
			c9.248,0,17.733,3.224,17.733,3.224L85.042,11.539z"/>
		<path fill="#FFFFFF" d="M98.284,1.018h18.156l0.085,41.999l19.175-41.999h18.497l-13.321,57.696h-11.708l11.03-47.514h-0.509
			l-20.618,44.968h-11.03L107.956,11.2h-0.424l-10.86,47.514H84.963L98.284,1.018z"/>
	</g>
</g>
<g>
</g>
<g>
</g>
<g>
</g>
<g>
</g>
<g>
</g>
<g>
</g>
</svg>
